<?xml version="1.0" encoding="UTF-8" standalone="no"?>
<!-- Created with Inkscape (http://www.inkscape.org/) -->

<svg
   xmlns:dc="http://purl.org/dc/elements/1.1/"
   xmlns:cc="http://creativecommons.org/ns#"
   xmlns:rdf="http://www.w3.org/1999/02/22-rdf-syntax-ns#"
   xmlns:svg="http://www.w3.org/2000/svg"
   xmlns="http://www.w3.org/2000/svg"
   xmlns:xlink="http://www.w3.org/1999/xlink"
   xmlns:sodipodi="http://sodipodi.sourceforge.net/DTD/sodipodi-0.dtd"
   xmlns:inkscape="http://www.inkscape.org/namespaces/inkscape"
   width="365.15848mm"
   height="25.987984mm"
   viewBox="0 0 1293.8691 92.083408"
   id="svg2"
   version="1.1"
   inkscape:version="0.91 r13725"
   sodipodi:docname="hbbg.svg">
  <defs
     id="defs4">
    <linearGradient
       id="linearGradient13197"
       inkscape:collect="always">
      <stop
         id="stop13199"
         offset="0"
         style="stop-color:#00d4aa;stop-opacity:1;" />
      <stop
         id="stop13201"
         offset="1"
         style="stop-color:#00d400;stop-opacity:1" />
    </linearGradient>
    <linearGradient
       inkscape:collect="always"
       id="linearGradient8240">
      <stop
         style="stop-color:#0066ff;stop-opacity:1"
         offset="0"
         id="stop8242" />
      <stop
         style="stop-color:#00d455;stop-opacity:1"
         offset="1"
         id="stop8244" />
    </linearGradient>
    <linearGradient
       id="linearGradient8074"
       inkscape:collect="always">
      <stop
         id="stop8076"
         offset="0"
         style="stop-color:#44aa00;stop-opacity:1" />
      <stop
         id="stop8078"
         offset="1"
         style="stop-color:#d4ff2a;stop-opacity:1" />
    </linearGradient>
    <inkscape:perspective
       id="perspective8072"
       inkscape:persp3d-origin="372.04739 : 350.78742 : 1"
       inkscape:vp_z="744.09475 : 526.18112 : 1"
       inkscape:vp_y="0 : 1000 : 0"
       inkscape:vp_x="0 : 526.18112 : 1"
       sodipodi:type="inkscape:persp3d" />
    <clipPath
       id="clipPath8137"
       clipPathUnits="userSpaceOnUse">
      <path
         inkscape:connector-curvature="0"
         style="opacity:1;fill:url(#linearGradient8141);fill-opacity:1;fill-rule:nonzero;stroke:none;stroke-width:8.19999981;stroke-linecap:butt;stroke-linejoin:bevel;stroke-miterlimit:4;stroke-dasharray:none;stroke-opacity:1"
         d="m 137.08203,249.50586 0,391.42773 317.9668,0 0,-293.49609 -97.93164,-97.93164 -220.03516,0 z"
         id="path8139" />
    </clipPath>
    <linearGradient
       y2="640.93365"
       x2="171.42857"
       y1="249.50507"
       x1="455.04865"
       gradientTransform="matrix(1.1210953,0,0,1,-55.104287,0)"
       gradientUnits="userSpaceOnUse"
       id="linearGradient8141"
       xlink:href="#linearGradient8074"
       inkscape:collect="always" />
    <clipPath
       id="clipPath8293"
       clipPathUnits="userSpaceOnUse">
      <path
         style="opacity:1;fill:url(#linearGradient8297);fill-opacity:1;fill-rule:nonzero;stroke:none;stroke-width:8.19999981;stroke-linecap:butt;stroke-linejoin:bevel;stroke-miterlimit:4;stroke-dasharray:none;stroke-opacity:1"
         d="m 446.18963,609.12016 0,391.42774 283.6211,0 0,-293.4961 -97.93164,-97.93164 -185.68946,0 z"
         id="path8295"
         inkscape:connector-curvature="0" />
    </clipPath>
    <linearGradient
       y2="640.93365"
       x2="171.42857"
       y1="249.50507"
       x1="455.04865"
       gradientTransform="matrix(1.1210953,0,0,1,219.65721,359.6143)"
       gradientUnits="userSpaceOnUse"
       id="linearGradient8297"
       xlink:href="#linearGradient8240"
       inkscape:collect="always" />
    <clipPath
       id="clipPath8353"
       clipPathUnits="userSpaceOnUse">
      <path
         inkscape:connector-curvature="0"
         id="path8355"
         d="m 803.78363,609.12016 0,391.42774 283.62107,0 0,-293.4961 -97.93161,-97.93164 -185.68946,0 z"
         style="opacity:1;fill:url(#linearGradient8357);fill-opacity:1;fill-rule:nonzero;stroke:none;stroke-width:8.19999981;stroke-linecap:butt;stroke-linejoin:bevel;stroke-miterlimit:4;stroke-dasharray:none;stroke-opacity:1" />
    </clipPath>
    <linearGradient
       y2="640.93365"
       x2="171.42857"
       y1="249.50507"
       x1="455.04865"
       gradientTransform="matrix(1.1210953,0,0,1,577.25121,359.6143)"
       gradientUnits="userSpaceOnUse"
       id="linearGradient8357"
       xlink:href="#linearGradient8240"
       inkscape:collect="always" />
    <clipPath
       id="clipPath8461"
       clipPathUnits="userSpaceOnUse">
      <path
         inkscape:connector-curvature="0"
         id="path8463"
         d="m 82.535156,1067.7285 0,391.4277 283.621094,0 0,-293.496 -97.93164,-97.9317 -185.689454,0 z"
         style="opacity:1;fill:#000000;fill-opacity:1;fill-rule:nonzero;stroke:none;stroke-width:8.19999981;stroke-linecap:butt;stroke-linejoin:bevel;stroke-miterlimit:4;stroke-dasharray:none;stroke-opacity:1" />
    </clipPath>
    <clipPath
       id="clipPath8560"
       clipPathUnits="userSpaceOnUse">
      <path
         style="opacity:1;fill:url(#linearGradient8564);fill-opacity:1;fill-rule:nonzero;stroke:none;stroke-width:8.19999981;stroke-linecap:butt;stroke-linejoin:bevel;stroke-miterlimit:4;stroke-dasharray:none;stroke-opacity:1"
         d="m 1286.456,411.58358 0,873.29092 632.7699,0 0,-654.80141 -218.4894,-218.48951 -414.2805,0 z"
         id="path8562"
         inkscape:connector-curvature="0" />
    </clipPath>
    <linearGradient
       y2="640.93365"
       x2="171.42857"
       y1="249.50507"
       x1="455.04865"
       gradientTransform="matrix(2.5012081,0,0,2.2310397,781.05317,-145.07385)"
       gradientUnits="userSpaceOnUse"
       id="linearGradient8564"
       xlink:href="#linearGradient8240"
       inkscape:collect="always" />
    <clipPath
       id="clipPath9073"
       clipPathUnits="userSpaceOnUse">
      <path
         inkscape:connector-curvature="0"
         id="path9075"
         d="m 749.43359,609.12109 0,391.42771 283.62111,0 0,-293.49607 -97.93165,-97.93164 -185.68946,0 z"
         style="opacity:1;fill:url(#linearGradient9077);fill-opacity:1;fill-rule:nonzero;stroke:none;stroke-width:8.19999981;stroke-linecap:butt;stroke-linejoin:bevel;stroke-miterlimit:4;stroke-dasharray:none;stroke-opacity:1" />
    </clipPath>
    <linearGradient
       y2="640.93365"
       x2="171.42857"
       y1="249.50507"
       x1="455.04865"
       gradientTransform="matrix(1.1210953,0,0,1,522.90155,359.6143)"
       gradientUnits="userSpaceOnUse"
       id="linearGradient9077"
       xlink:href="#linearGradient8074"
       inkscape:collect="always" />
    <clipPath
       id="clipPath9096"
       clipPathUnits="userSpaceOnUse">
      <path
         style="opacity:1;fill:url(#linearGradient9100);fill-opacity:1;fill-rule:nonzero;stroke:none;stroke-width:8.19999981;stroke-linecap:butt;stroke-linejoin:bevel;stroke-miterlimit:4;stroke-dasharray:none;stroke-opacity:1"
         d="m 1470.6829,609.12019 0,391.42771 283.6211,0 0,-293.49607 -97.9317,-97.93164 -185.6894,0 z"
         id="path9098"
         inkscape:connector-curvature="0" />
    </clipPath>
    <linearGradient
       y2="640.93365"
       x2="171.42857"
       y1="249.50507"
       x1="455.04865"
       gradientTransform="matrix(1.1210953,0,0,1,1244.1509,359.6134)"
       gradientUnits="userSpaceOnUse"
       id="linearGradient9100"
       xlink:href="#linearGradient8074"
       inkscape:collect="always" />
    <clipPath
       id="clipPath13504"
       clipPathUnits="userSpaceOnUse">
      <rect
         ry="28.821301"
         y="1828.3097"
         x="-113.14285"
         height="297.14285"
         width="1188.5714"
         id="rect13506"
         style="opacity:1;fill:#ffffff;fill-opacity:1;fill-rule:nonzero;stroke:none;stroke-width:18;stroke-linecap:square;stroke-linejoin:round;stroke-miterlimit:4;stroke-dasharray:none;stroke-opacity:1" />
    </clipPath>
    <clipPath
       id="clipPath13745"
       clipPathUnits="userSpaceOnUse">
      <rect
         style="opacity:1;fill:url(#linearGradient13749);fill-opacity:1;fill-rule:nonzero;stroke:none;stroke-width:18;stroke-linecap:square;stroke-linejoin:round;stroke-miterlimit:4;stroke-dasharray:none;stroke-opacity:1"
         id="rect13747"
         width="589.01691"
         height="153.36589"
         x="70.064774"
         y="587.21069" />
    </clipPath>
    <linearGradient
       y2="3428.2402"
       x2="2318.834"
       y1="2199.8955"
       x1="-2309.8545"
       gradientTransform="matrix(0.1272535,0,0,0.12485566,364.00187,312.54127)"
       gradientUnits="userSpaceOnUse"
       id="linearGradient13749"
       xlink:href="#linearGradient13197"
       inkscape:collect="always" />
    <filter
       id="filter14024"
       inkscape:label="Drop Shadow"
       style="color-interpolation-filters:sRGB">
      <feFlood
         id="feFlood14026"
         result="flood"
         flood-color="rgb(0,0,0)"
         flood-opacity="0.498039" />
      <feComposite
         id="feComposite14028"
         result="composite1"
         operator="in"
         in2="SourceGraphic"
         in="flood" />
      <feGaussianBlur
         id="feGaussianBlur14030"
         result="blur"
         stdDeviation="28.6"
         in="composite1" />
      <feOffset
         id="feOffset14032"
         result="offset"
         dy="27.5"
         dx="0" />
      <feComposite
         id="feComposite14034"
         result="composite2"
         operator="over"
         in2="offset"
         in="SourceGraphic" />
    </filter>
    <filter
       id="filter8603"
       inkscape:label="Drop Shadow"
       style="color-interpolation-filters:sRGB">
      <feFlood
         id="feFlood8605"
         result="flood"
         flood-color="rgb(0,0,0)"
         flood-opacity="0.498039" />
      <feComposite
         id="feComposite8607"
         result="composite1"
         operator="in"
         in2="SourceGraphic"
         in="flood" />
      <feGaussianBlur
         id="feGaussianBlur8609"
         result="blur"
         stdDeviation="28.6"
         in="composite1" />
      <feOffset
         id="feOffset8611"
         result="offset"
         dy="27.5"
         dx="0" />
      <feComposite
         id="feComposite8613"
         result="composite2"
         operator="over"
         in2="offset"
         in="SourceGraphic" />
    </filter>
    <filter
       height="1.45"
       y="-0.14"
       width="1.39"
       x="-0.2"
       id="filter8701"
       inkscape:label="Drop Shadow"
       style="color-interpolation-filters:sRGB">
      <feFlood
         id="feFlood8703"
         result="flood"
         flood-color="rgb(0,0,0)"
         flood-opacity="0.498039" />
      <feComposite
         id="feComposite8705"
         result="composite1"
         operator="in"
         in2="SourceGraphic"
         in="flood" />
      <feGaussianBlur
         id="feGaussianBlur8707"
         result="blur"
         stdDeviation="13.7"
         in="composite1" />
      <feOffset
         id="feOffset8709"
         result="offset"
         dy="17.8"
         dx="0" />
      <feComposite
         id="feComposite8711"
         result="composite2"
         operator="over"
         in2="offset"
         in="SourceGraphic" />
    </filter>
    <linearGradient
       y2="3428.2402"
       x2="2318.834"
       y1="2199.8955"
       x1="-2309.8545"
       gradientTransform="matrix(0.1272535,0,0,0.26674222,367.33253,37.712021)"
       gradientUnits="userSpaceOnUse"
       id="linearGradient9830"
       xlink:href="#linearGradient13197"
       inkscape:collect="always" />
    <clipPath
       id="clipPath9972"
       clipPathUnits="userSpaceOnUse">
      <path
         style="opacity:1;fill:url(#linearGradient9976);fill-opacity:1;fill-rule:nonzero;stroke:none;stroke-width:8.19999981;stroke-linecap:butt;stroke-linejoin:bevel;stroke-miterlimit:4;stroke-dasharray:none;stroke-opacity:1"
         d="m 345.46247,789.44056 0,198.65125 143.9389,0 0,-148.9505 -49.70072,-49.70075 -94.23818,0 z"
         id="path9974"
         inkscape:connector-curvature="0" />
    </clipPath>
    <linearGradient
       y2="640.93365"
       x2="171.42857"
       y1="249.50507"
       x1="455.04865"
       gradientTransform="matrix(0.56896055,0,0,0.50750418,230.49632,662.81531)"
       gradientUnits="userSpaceOnUse"
       id="linearGradient9976"
       xlink:href="#linearGradient8240"
       inkscape:collect="always" />
    <clipPath
       id="clipPath9979"
       clipPathUnits="userSpaceOnUse">
      <rect
         y="624.51703"
         x="73.395432"
         height="327.65161"
         width="589.01691"
         id="rect9981"
         style="opacity:1;fill:url(#linearGradient9830);fill-opacity:1;fill-rule:nonzero;stroke:none;stroke-width:18;stroke-linecap:square;stroke-linejoin:round;stroke-miterlimit:4;stroke-dasharray:none;stroke-opacity:1" />
    </clipPath>
  </defs>
  <sodipodi:namedview
     id="base"
     pagecolor="#ffffff"
     bordercolor="#666666"
     borderopacity="1.0"
     inkscape:pageopacity="0.0"
     inkscape:pageshadow="2"
     inkscape:zoom="0.49497475"
     inkscape:cx="694.61614"
     inkscape:cy="-43.088421"
     inkscape:document-units="px"
     inkscape:current-layer="layer1"
     showgrid="false"
     inkscape:window-width="1366"
     inkscape:window-height="705"
     inkscape:window-x="0"
     inkscape:window-y="30"
     inkscape:window-maximized="1"
     fit-margin-top="0"
     fit-margin-left="0"
     fit-margin-right="0"
     fit-margin-bottom="0"
     inkscape:snap-bbox="true"
     inkscape:bbox-paths="true"
     inkscape:bbox-nodes="true"
     inkscape:snap-bbox-edge-midpoints="true"
     inkscape:snap-bbox-midpoints="true"
     inkscape:object-paths="true"
     inkscape:snap-intersection-paths="true"
     inkscape:object-nodes="true"
     inkscape:snap-smooth-nodes="true"
     inkscape:snap-midpoints="true"
     inkscape:snap-object-midpoints="true"
     inkscape:snap-text-baseline="true"
     inkscape:snap-center="true"
     inkscape:snap-page="true"
     inkscape:snap-global="true" />
  <metadata
     id="metadata7">
    <rdf:RDF>
      <cc:Work
         rdf:about="">
        <dc:format>image/svg+xml</dc:format>
        <dc:type
           rdf:resource="http://purl.org/dc/dcmitype/StillImage" />
        <dc:title></dc:title>
      </cc:Work>
    </rdf:RDF>
  </metadata>
  <g
     inkscape:label="Layer 1"
     inkscape:groupmode="layer"
     id="layer1"
     transform="translate(323.26052,-935.29629)">
    <g
       style="font-style:normal;font-weight:normal;font-size:112.56636047px;line-height:125%;font-family:sans-serif;letter-spacing:0px;word-spacing:0px;fill:#333333;fill-opacity:0.4642857;stroke:none;stroke-width:1px;stroke-linecap:butt;stroke-linejoin:miter;stroke-opacity:1"
       id="text8241"
       transform="translate(-894.77175,433.76123)">
      <path
         d="m 615.40283,505.24036 q 11.651,0 21.51428,5.79467 10.35645,5.97962 16.27442,16.02784 5.91797,10.10986 5.91797,21.76086 0,11.651 -5.97962,21.82251 -5.73303,9.73999 -15.53467,15.53467 -10.41809,6.16455 -22.68554,6.16455 -11.09619,0 -21.39099,-5.79468 -10.84961,-6.2262 -16.64429,-16.70593 -5.36316,-9.67835 -5.36316,-21.57593 0,-17.93884 13.87024,-31.00769 12.39075,-11.71265 30.02136,-12.02087 z m -0.0616,8.8153 q -15.65796,0 -25.95276,12.02088 -8.38379,9.73999 -8.38379,22.25403 0,15.53466 10.72632,25.64453 5.54809,5.17822 12.63733,7.70569 5.36316,1.84936 10.66467,1.84936 9.55505,0 17.81555,-4.99328 8.13721,-4.80835 12.51404,-12.88392 4.25354,-7.76733 4.25354,-16.82922 0,-14.79492 -10.47974,-25.08972 -9.6167,-9.43176 -23.79516,-9.67835 z"
         style="font-style:normal;font-variant:normal;font-weight:normal;font-stretch:normal;font-size:126.25px;font-family:futuraTEE;-inkscape-font-specification:futuraTEE;fill:#333333;fill-opacity:0.4642857"
         id="path8250"
         inkscape:connector-curvature="0" />
      <path
         d="m 714.77539,515.41187 -28.8501,0 0,24.96643 27.92542,0 0,8.75366 -27.92542,0 0,41.67236 -9.43176,0 0,-84.14612 38.28186,0 0,8.75367 z"
         style="font-style:normal;font-variant:normal;font-weight:normal;font-stretch:normal;font-size:126.25px;font-family:futuraTEE;-inkscape-font-specification:futuraTEE;fill:#333333;fill-opacity:0.4642857"
         id="path8252"
         inkscape:connector-curvature="0" />
      <path
         d="m 769.5166,515.41187 -28.8501,0 0,24.96643 27.92542,0 0,8.75366 -27.92542,0 0,41.67236 -9.43176,0 0,-84.14612 38.28186,0 0,8.75367 z"
         style="font-style:normal;font-variant:normal;font-weight:normal;font-stretch:normal;font-size:126.25px;font-family:futuraTEE;-inkscape-font-specification:futuraTEE;fill:#333333;fill-opacity:0.4642857"
         id="path8254"
         inkscape:connector-curvature="0" />
      <path
         d="m 795.40771,506.6582 0,84.14612 -9.43176,0 0,-84.14612 9.43176,0 z"
         style="font-style:normal;font-variant:normal;font-weight:normal;font-stretch:normal;font-size:126.25px;font-family:futuraTEE;-inkscape-font-specification:futuraTEE;fill:#333333;fill-opacity:0.4642857"
         id="path8256"
         inkscape:connector-curvature="0" />
      <path
         d="m 881.58813,513.5625 0,11.651 q -5.36315,-5.11658 -9.98657,-7.39746 -7.58239,-3.76038 -15.47302,-3.76038 -9.00024,0 -16.95251,4.80835 -8.63038,5.11658 -13.19214,14.17847 -3.82202,7.52075 -3.82202,16.08948 0,15.65796 11.58935,25.64453 10.10986,8.75366 22.43897,8.75366 7.02758,0 13.13049,-2.65076 6.16455,-2.7124 12.26745,-8.44543 l 0,11.71265 q -11.95922,8.19885 -25.3363,8.19885 -10.60303,0 -20.15808,-5.05493 -12.14417,-6.41114 -18.49365,-18.37036 -4.93164,-9.37012 -4.93164,-19.9115 0,-10.78797 5.23987,-20.52796 5.97961,-11.15783 16.82922,-17.38403 10.17151,-5.85632 22.00745,-5.85632 6.96594,0 12.69897,1.97265 5.79468,1.91101 12.14416,6.34949 z"
         style="font-style:normal;font-variant:normal;font-weight:normal;font-stretch:normal;font-size:126.25px;font-family:futuraTEE;-inkscape-font-specification:futuraTEE;fill:#333333;fill-opacity:0.4642857"
         id="path8258"
         inkscape:connector-curvature="0" />
      <path
         d="m 942.4939,515.41187 -34.15161,0 0,24.96643 33.22692,0 0,8.75366 -33.22692,0 0,32.9187 34.15161,0 0,8.75366 -43.58338,0 0,-84.14612 43.58338,0 0,8.75367 z"
         style="font-style:normal;font-variant:normal;font-weight:normal;font-stretch:normal;font-size:126.25px;font-family:futuraTEE;-inkscape-font-specification:futuraTEE;fill:#333333;fill-opacity:0.4642857"
         id="path8260"
         inkscape:connector-curvature="0" />
      <path
         d="m 970.18007,505.92929 -22.96354,0 25.32743,84.87503 22.40071,0 16.65983,-49.1915 0.2251,0 14.8588,49.1915 22.5133,0 27.1284,-84.87503 -22.9635,0 -15.9844,54.81981 -0.2251,0 -16.6599,-54.81981 -17.5603,0 -17.7855,54.81981 -0.22514,0 -14.74619,-54.81981 z"
         style="font-style:normal;font-variant:normal;font-weight:bold;font-stretch:normal;font-family:Futura;-inkscape-font-specification:'Futura Bold';fill:#333333;fill-opacity:0.4642857"
         id="path8262"
         inkscape:connector-curvature="0" />
      <path
         d="m 1124.5296,503.11513 c -24.4269,0 -46.9401,18.01061 -46.9401,43.67574 0,27.4662 19.6991,46.82761 46.9401,46.82761 27.2411,0 46.9402,-19.36141 46.9402,-46.82761 0,-25.66513 -22.5133,-43.67574 -46.9402,-43.67574 z m 0,21.3876 c 13.1703,0 23.9767,10.69381 23.9767,22.40071 0,14.63363 -10.8064,25.32743 -23.9767,25.32743 -13.1702,0 -23.9766,-10.6938 -23.9766,-25.32743 0,-11.7069 10.8064,-22.40071 23.9766,-22.40071 z"
         style="font-style:normal;font-variant:normal;font-weight:bold;font-stretch:normal;font-family:Futura;-inkscape-font-specification:'Futura Bold';fill:#333333;fill-opacity:0.4642857"
         id="path8264"
         inkscape:connector-curvature="0" />
      <path
         d="m 1225.5826,556.02132 c 12.0446,-2.13876 18.5735,-12.26974 18.5735,-23.97664 0,-18.12318 -12.72,-26.11539 -29.4924,-26.11539 l -32.982,0 0,84.87503 22.063,0 0,-32.64424 0.2252,0 20.8247,32.64424 27.4662,0 -26.6782,-34.783 z m -21.8379,-33.20708 2.1388,0 c 7.2042,0 15.309,1.3508 15.309,10.58124 0,9.23044 -8.1048,10.58124 -15.309,10.58124 l -2.1388,0 0,-21.16248 z"
         style="font-style:normal;font-variant:normal;font-weight:bold;font-stretch:normal;font-family:Futura;-inkscape-font-specification:'Futura Bold';fill:#333333;fill-opacity:0.4642857"
         id="path8266"
         inkscape:connector-curvature="0" />
      <path
         d="m 1280.4798,540.93742 -0.2251,0 0,-35.00813 -22.063,0 0,84.87503 22.063,0 0,-36.8092 0.2251,0 28.4793,36.8092 28.5919,0 -36.8092,-44.68884 33.7699,-40.18619 -27.3537,0 -26.6782,35.00813 z"
         style="font-style:normal;font-variant:normal;font-weight:bold;font-stretch:normal;font-family:Futura;-inkscape-font-specification:'Futura Bold';fill:#333333;fill-opacity:0.4642857"
         id="path8268"
         inkscape:connector-curvature="0" />
      <path
         d="m 1398.8785,510.65707 c -7.5419,-4.27752 -18.0106,-6.97911 -26.5656,-6.97911 -16.9976,0 -29.2673,11.25663 -29.2673,28.47929 0,16.43469 9.1179,20.03681 22.9635,23.97663 4.7278,1.3508 13.3954,3.48956 13.3954,9.68071 0,5.96602 -5.5157,8.55504 -10.6938,8.55504 -7.5419,0 -14.0708,-3.93982 -19.5865,-8.78017 l -9.4556,17.78548 c 8.6676,6.07858 19.1363,9.68071 29.8301,9.68071 8.555,0 17.4478,-2.3639 24.0892,-7.99221 6.754,-5.74089 8.7802,-14.4085 8.7802,-22.85097 0,-13.7331 -9.1179,-19.69912 -20.9374,-23.18867 l -5.6283,-1.6885 c -3.8272,-1.23823 -9.7933,-3.15186 -9.7933,-8.10478 0,-4.72779 5.4032,-7.09168 9.4556,-7.09168 5.4032,0 10.5813,2.25133 14.6336,5.62832 l 8.7802,-17.11009 z"
         style="font-style:normal;font-variant:normal;font-weight:bold;font-stretch:normal;font-family:Futura;-inkscape-font-specification:'Futura Bold';fill:#333333;fill-opacity:0.4642857"
         id="path8270"
         inkscape:connector-curvature="0" />
    </g>
    <g
       style="font-style:normal;font-weight:normal;font-size:125.80449677px;line-height:125%;font-family:sans-serif;letter-spacing:0px;word-spacing:0px;fill:#333333;fill-opacity:1;stroke:none;stroke-width:1px;stroke-linecap:butt;stroke-linejoin:miter;stroke-opacity:1"
       id="text4352"
       transform="matrix(1.0239753,0,0,1.0239753,82.598126,-23.885499)">
      <path
         d="m 471.19251,1000.8544 -35.81251,0 -10.13562,23.7112 -10.19704,0 38.6382,-87.84206 37.65535,87.84206 -10.25848,0 -9.8899,-23.7112 z m -3.68568,-8.72282 -14.00558,-33.6011 -14.31272,33.6011 28.3183,0 z"
         style="font-style:normal;font-variant:normal;font-weight:normal;font-stretch:normal;font-family:futuraTEE;-inkscape-font-specification:futuraTEE;fill:#333333;fill-opacity:1"
         id="path4357"
         inkscape:connector-curvature="0" />
      <path
         d="m 509.40071,940.71636 0,51.35379 q 0,6.5728 0.61428,10.01275 0.61428,3.44 2.21141,6.1428 2.27283,3.8085 7.06422,6.3885 4.97566,2.7029 10.56561,2.7029 7.73992,0 13.82129,-4.7914 3.93139,-3.1329 5.28281,-7.31 1.41284,-4.2385 1.41284,-13.14555 l 0,-51.35379 9.39848,0 0,53.93377 q 0,6.81847 -1.28999,11.42557 -1.22856,4.5457 -4.1771,8.4157 -4.29996,5.5899 -11.11846,8.7227 -6.32708,2.8872 -13.32987,2.8872 -10.01276,0 -18.24411,-5.7129 -6.20423,-4.3613 -8.90706,-10.3813 -2.70283,-6.0199 -2.70283,-15.35697 l 0,-53.93377 9.39848,0 z"
         style="font-style:normal;font-variant:normal;font-weight:normal;font-stretch:normal;font-family:futuraTEE;-inkscape-font-specification:futuraTEE;fill:#333333;fill-opacity:1"
         id="path4359"
         inkscape:connector-curvature="0" />
      <path
         d="m 602.03411,949.43914 0,75.12646 -9.39848,0 0,-75.12646 -20.27123,0 0,-8.72278 50.0638,0 0,8.72278 -20.39409,0 z"
         style="font-style:normal;font-variant:normal;font-weight:normal;font-stretch:normal;font-family:futuraTEE;-inkscape-font-specification:futuraTEE;fill:#333333;fill-opacity:1"
         id="path4361"
         inkscape:connector-curvature="0" />
      <path
         d="m 644.54226,974.80889 42.87673,0 0,-34.09253 9.39848,0 0,83.84924 -9.39848,0 0,-41.03394 -42.87673,0 0,41.03394 -9.39848,0 0,-83.84924 9.39848,0 0,34.09253 z"
         style="font-style:normal;font-variant:normal;font-weight:normal;font-stretch:normal;font-family:futuraTEE;-inkscape-font-specification:futuraTEE;fill:#333333;fill-opacity:1"
         id="path4363"
         inkscape:connector-curvature="0" />
      <path
         d="m 757.81545,939.30352 q 11.60989,0 21.43837,5.77423 10.3199,5.95851 16.21698,15.97127 5.89709,10.07419 5.89709,21.68408 0,11.60989 -5.95852,21.7455 -5.7128,9.7056 -15.47985,15.4799 -10.38132,6.1428 -22.60549,6.1428 -11.05704,0 -21.31551,-5.7743 -10.81132,-6.2042 -16.58555,-16.647 -5.34424,-9.64415 -5.34424,-21.49975 0,-17.87554 13.8213,-30.89827 12.34702,-11.67132 29.91542,-11.97846 z m -0.0614,8.7842 q -15.60271,0 -25.86118,11.97846 -8.35421,9.70562 -8.35421,22.1755 0,15.47985 10.68847,25.55402 5.52852,5.16 12.59274,7.6785 5.34423,1.8429 10.62704,1.8429 9.52133,0 17.75268,-4.9757 8.10849,-4.7914 12.46988,-12.83846 4.23853,-7.73993 4.23853,-16.76984 0,-14.74272 -10.44276,-25.00119 -9.58276,-9.39848 -23.71119,-9.64419 z"
         style="font-style:normal;font-variant:normal;font-weight:normal;font-stretch:normal;font-family:futuraTEE;-inkscape-font-specification:futuraTEE;fill:#333333;fill-opacity:1"
         id="path4365"
         inkscape:connector-curvature="0" />
      <path
         d="m 840.55892,987.03306 26.65974,37.53254 -11.4256,0 -25.30833,-36.79541 -2.39569,0 0,36.79541 -9.39848,0 0,-83.84924 13.57558,0 q 7.18708,0 11.79418,1.04428 4.66852,1.04427 8.29277,3.50139 4.54567,3.0714 6.94136,8.23135 2.33427,5.0371 2.33427,10.7499 0,9.52133 -5.77423,15.72556 -5.7128,6.20423 -15.29557,7.06422 z m -12.46988,-7.49422 5.83566,0 q 8.53849,0 13.02273,-3.37853 5.46709,-4.17711 5.46709,-11.91703 0,-8.23135 -6.08137,-12.10131 -4.36138,-2.70283 -12.65416,-2.70283 l -5.58995,0 0,30.0997 z"
         style="font-style:normal;font-variant:normal;font-weight:normal;font-stretch:normal;font-family:futuraTEE;-inkscape-font-specification:futuraTEE;fill:#333333;fill-opacity:1"
         id="path4367"
         inkscape:connector-curvature="0" />
    </g>
  </g>
</svg>
