<?xml version="1.0" encoding="UTF-8" standalone="no"?>
<!-- Created with Inkscape (http://www.inkscape.org/) -->

<svg
   xmlns:dc="http://purl.org/dc/elements/1.1/"
   xmlns:cc="http://creativecommons.org/ns#"
   xmlns:rdf="http://www.w3.org/1999/02/22-rdf-syntax-ns#"
   xmlns:svg="http://www.w3.org/2000/svg"
   xmlns="http://www.w3.org/2000/svg"
   xmlns:xlink="http://www.w3.org/1999/xlink"
   xmlns:sodipodi="http://sodipodi.sourceforge.net/DTD/sodipodi-0.dtd"
   xmlns:inkscape="http://www.inkscape.org/namespaces/inkscape"
   width="37.516815mm"
   height="28.596897mm"
   viewBox="0 0 132.9336 101.32759"
   id="svg2"
   version="1.1"
   inkscape:version="0.91 r13725"
   sodipodi:docname="Icon.svg">
  <defs
     id="defs4">
    <linearGradient
       id="linearGradient13197"
       inkscape:collect="always">
      <stop
         id="stop13199"
         offset="0"
         style="stop-color:#00d4aa;stop-opacity:1;" />
      <stop
         id="stop13201"
         offset="1"
         style="stop-color:#00d400;stop-opacity:1" />
    </linearGradient>
    <linearGradient
       inkscape:collect="always"
       id="linearGradient8240">
      <stop
         style="stop-color:#0066ff;stop-opacity:1"
         offset="0"
         id="stop8242" />
      <stop
         style="stop-color:#00d455;stop-opacity:1"
         offset="1"
         id="stop8244" />
    </linearGradient>
    <linearGradient
       id="linearGradient8074"
       inkscape:collect="always">
      <stop
         id="stop8076"
         offset="0"
         style="stop-color:#44aa00;stop-opacity:1" />
      <stop
         id="stop8078"
         offset="1"
         style="stop-color:#d4ff2a;stop-opacity:1" />
    </linearGradient>
    <inkscape:perspective
       id="perspective8072"
       inkscape:persp3d-origin="372.04726 : 350.78741 : 1"
       inkscape:vp_z="744.09454 : 526.18111 : 1"
       inkscape:vp_y="0 : 1000 : 0"
       inkscape:vp_x="0 : 526.18111 : 1"
       sodipodi:type="inkscape:persp3d" />
    <clipPath
       id="clipPath8137"
       clipPathUnits="userSpaceOnUse">
      <path
         inkscape:connector-curvature="0"
         style="opacity:1;fill:url(#linearGradient8141);fill-opacity:1;fill-rule:nonzero;stroke:none;stroke-width:8.19999981;stroke-linecap:butt;stroke-linejoin:bevel;stroke-miterlimit:4;stroke-dasharray:none;stroke-opacity:1"
         d="m 137.08203,249.50586 0,391.42773 317.9668,0 0,-293.49609 -97.93164,-97.93164 -220.03516,0 z"
         id="path8139" />
    </clipPath>
    <linearGradient
       y2="640.93365"
       x2="171.42857"
       y1="249.50507"
       x1="455.04865"
       gradientTransform="matrix(1.1210953,0,0,1,-55.104287,0)"
       gradientUnits="userSpaceOnUse"
       id="linearGradient8141"
       xlink:href="#linearGradient8074"
       inkscape:collect="always" />
    <clipPath
       id="clipPath8293"
       clipPathUnits="userSpaceOnUse">
      <path
         style="opacity:1;fill:url(#linearGradient8297);fill-opacity:1;fill-rule:nonzero;stroke:none;stroke-width:8.19999981;stroke-linecap:butt;stroke-linejoin:bevel;stroke-miterlimit:4;stroke-dasharray:none;stroke-opacity:1"
         d="m 446.18963,609.12016 0,391.42774 283.6211,0 0,-293.4961 -97.93164,-97.93164 -185.68946,0 z"
         id="path8295"
         inkscape:connector-curvature="0" />
    </clipPath>
    <linearGradient
       y2="640.93365"
       x2="171.42857"
       y1="249.50507"
       x1="455.04865"
       gradientTransform="matrix(1.1210953,0,0,1,219.65721,359.6143)"
       gradientUnits="userSpaceOnUse"
       id="linearGradient8297"
       xlink:href="#linearGradient8240"
       inkscape:collect="always" />
    <clipPath
       id="clipPath8353"
       clipPathUnits="userSpaceOnUse">
      <path
         inkscape:connector-curvature="0"
         id="path8355"
         d="m 803.78363,609.12016 0,391.42774 283.62107,0 0,-293.4961 -97.93161,-97.93164 -185.68946,0 z"
         style="opacity:1;fill:url(#linearGradient8357);fill-opacity:1;fill-rule:nonzero;stroke:none;stroke-width:8.19999981;stroke-linecap:butt;stroke-linejoin:bevel;stroke-miterlimit:4;stroke-dasharray:none;stroke-opacity:1" />
    </clipPath>
    <linearGradient
       y2="640.93365"
       x2="171.42857"
       y1="249.50507"
       x1="455.04865"
       gradientTransform="matrix(1.1210953,0,0,1,577.25121,359.6143)"
       gradientUnits="userSpaceOnUse"
       id="linearGradient8357"
       xlink:href="#linearGradient8240"
       inkscape:collect="always" />
    <clipPath
       id="clipPath8461"
       clipPathUnits="userSpaceOnUse">
      <path
         inkscape:connector-curvature="0"
         id="path8463"
         d="m 82.535156,1067.7285 0,391.4277 283.621094,0 0,-293.496 -97.93164,-97.9317 -185.689454,0 z"
         style="opacity:1;fill:#000000;fill-opacity:1;fill-rule:nonzero;stroke:none;stroke-width:8.19999981;stroke-linecap:butt;stroke-linejoin:bevel;stroke-miterlimit:4;stroke-dasharray:none;stroke-opacity:1" />
    </clipPath>
    <clipPath
       id="clipPath8560"
       clipPathUnits="userSpaceOnUse">
      <path
         style="opacity:1;fill:url(#linearGradient8564);fill-opacity:1;fill-rule:nonzero;stroke:none;stroke-width:8.19999981;stroke-linecap:butt;stroke-linejoin:bevel;stroke-miterlimit:4;stroke-dasharray:none;stroke-opacity:1"
         d="m 1286.456,411.58358 0,873.29092 632.7699,0 0,-654.80141 -218.4894,-218.48951 -414.2805,0 z"
         id="path8562"
         inkscape:connector-curvature="0" />
    </clipPath>
    <linearGradient
       y2="640.93365"
       x2="171.42857"
       y1="249.50507"
       x1="455.04865"
       gradientTransform="matrix(2.5012081,0,0,2.2310397,781.05317,-145.07385)"
       gradientUnits="userSpaceOnUse"
       id="linearGradient8564"
       xlink:href="#linearGradient8240"
       inkscape:collect="always" />
    <clipPath
       id="clipPath9073"
       clipPathUnits="userSpaceOnUse">
      <path
         inkscape:connector-curvature="0"
         id="path9075"
         d="m 749.43359,609.12109 0,391.42771 283.62111,0 0,-293.49607 -97.93165,-97.93164 -185.68946,0 z"
         style="opacity:1;fill:url(#linearGradient9077);fill-opacity:1;fill-rule:nonzero;stroke:none;stroke-width:8.19999981;stroke-linecap:butt;stroke-linejoin:bevel;stroke-miterlimit:4;stroke-dasharray:none;stroke-opacity:1" />
    </clipPath>
    <linearGradient
       y2="640.93365"
       x2="171.42857"
       y1="249.50507"
       x1="455.04865"
       gradientTransform="matrix(1.1210953,0,0,1,522.90155,359.6143)"
       gradientUnits="userSpaceOnUse"
       id="linearGradient9077"
       xlink:href="#linearGradient8074"
       inkscape:collect="always" />
    <clipPath
       id="clipPath9096"
       clipPathUnits="userSpaceOnUse">
      <path
         style="opacity:1;fill:url(#linearGradient9100);fill-opacity:1;fill-rule:nonzero;stroke:none;stroke-width:8.19999981;stroke-linecap:butt;stroke-linejoin:bevel;stroke-miterlimit:4;stroke-dasharray:none;stroke-opacity:1"
         d="m 1470.6829,609.12019 0,391.42771 283.6211,0 0,-293.49607 -97.9317,-97.93164 -185.6894,0 z"
         id="path9098"
         inkscape:connector-curvature="0" />
    </clipPath>
    <linearGradient
       y2="640.93365"
       x2="171.42857"
       y1="249.50507"
       x1="455.04865"
       gradientTransform="matrix(1.1210953,0,0,1,1244.1509,359.6134)"
       gradientUnits="userSpaceOnUse"
       id="linearGradient9100"
       xlink:href="#linearGradient8074"
       inkscape:collect="always" />
    <clipPath
       id="clipPath13504"
       clipPathUnits="userSpaceOnUse">
      <rect
         ry="28.821301"
         y="1828.3097"
         x="-113.14285"
         height="297.14285"
         width="1188.5714"
         id="rect13506"
         style="opacity:1;fill:#ffffff;fill-opacity:1;fill-rule:nonzero;stroke:none;stroke-width:18;stroke-linecap:square;stroke-linejoin:round;stroke-miterlimit:4;stroke-dasharray:none;stroke-opacity:1" />
    </clipPath>
    <clipPath
       id="clipPath13745"
       clipPathUnits="userSpaceOnUse">
      <rect
         style="opacity:1;fill:url(#linearGradient13749);fill-opacity:1;fill-rule:nonzero;stroke:none;stroke-width:18;stroke-linecap:square;stroke-linejoin:round;stroke-miterlimit:4;stroke-dasharray:none;stroke-opacity:1"
         id="rect13747"
         width="589.01691"
         height="153.36589"
         x="70.064774"
         y="587.21069" />
    </clipPath>
    <linearGradient
       y2="3428.2402"
       x2="2318.834"
       y1="2199.8955"
       x1="-2309.8545"
       gradientTransform="matrix(0.1272535,0,0,0.12485566,364.00187,312.54127)"
       gradientUnits="userSpaceOnUse"
       id="linearGradient13749"
       xlink:href="#linearGradient13197"
       inkscape:collect="always" />
    <filter
       id="filter14024"
       inkscape:label="Drop Shadow"
       style="color-interpolation-filters:sRGB">
      <feFlood
         id="feFlood14026"
         result="flood"
         flood-color="rgb(0,0,0)"
         flood-opacity="0.498039" />
      <feComposite
         id="feComposite14028"
         result="composite1"
         operator="in"
         in2="SourceGraphic"
         in="flood" />
      <feGaussianBlur
         id="feGaussianBlur14030"
         result="blur"
         stdDeviation="28.6"
         in="composite1" />
      <feOffset
         id="feOffset14032"
         result="offset"
         dy="27.5"
         dx="0" />
      <feComposite
         id="feComposite14034"
         result="composite2"
         operator="over"
         in2="offset"
         in="SourceGraphic" />
    </filter>
    <filter
       id="filter8603"
       inkscape:label="Drop Shadow"
       style="color-interpolation-filters:sRGB">
      <feFlood
         id="feFlood8605"
         result="flood"
         flood-color="rgb(0,0,0)"
         flood-opacity="0.498039" />
      <feComposite
         id="feComposite8607"
         result="composite1"
         operator="in"
         in2="SourceGraphic"
         in="flood" />
      <feGaussianBlur
         id="feGaussianBlur8609"
         result="blur"
         stdDeviation="28.6"
         in="composite1" />
      <feOffset
         id="feOffset8611"
         result="offset"
         dy="27.5"
         dx="0" />
      <feComposite
         id="feComposite8613"
         result="composite2"
         operator="over"
         in2="offset"
         in="SourceGraphic" />
    </filter>
    <filter
       height="1.45"
       y="-0.14"
       width="1.39"
       x="-0.2"
       id="filter8701"
       inkscape:label="Drop Shadow"
       style="color-interpolation-filters:sRGB">
      <feFlood
         id="feFlood8703"
         result="flood"
         flood-color="rgb(0,0,0)"
         flood-opacity="0.498039" />
      <feComposite
         id="feComposite8705"
         result="composite1"
         operator="in"
         in2="SourceGraphic"
         in="flood" />
      <feGaussianBlur
         id="feGaussianBlur8707"
         result="blur"
         stdDeviation="13.7"
         in="composite1" />
      <feOffset
         id="feOffset8709"
         result="offset"
         dy="17.8"
         dx="0" />
      <feComposite
         id="feComposite8711"
         result="composite2"
         operator="over"
         in2="offset"
         in="SourceGraphic" />
    </filter>
    <linearGradient
       y2="3428.2402"
       x2="2318.834"
       y1="2199.8955"
       x1="-2309.8545"
       gradientTransform="matrix(0.1272535,0,0,0.26674222,367.33253,37.712021)"
       gradientUnits="userSpaceOnUse"
       id="linearGradient9830"
       xlink:href="#linearGradient13197"
       inkscape:collect="always" />
    <clipPath
       id="clipPath9972"
       clipPathUnits="userSpaceOnUse">
      <path
         style="opacity:1;fill:url(#linearGradient9976);fill-opacity:1;fill-rule:nonzero;stroke:none;stroke-width:8.19999981;stroke-linecap:butt;stroke-linejoin:bevel;stroke-miterlimit:4;stroke-dasharray:none;stroke-opacity:1"
         d="m 345.46247,789.44056 0,198.65125 143.9389,0 0,-148.9505 -49.70072,-49.70075 -94.23818,0 z"
         id="path9974"
         inkscape:connector-curvature="0" />
    </clipPath>
    <linearGradient
       y2="640.93365"
       x2="171.42857"
       y1="249.50507"
       x1="455.04865"
       gradientTransform="matrix(0.56896055,0,0,0.50750418,230.49632,662.81531)"
       gradientUnits="userSpaceOnUse"
       id="linearGradient9976"
       xlink:href="#linearGradient8240"
       inkscape:collect="always" />
    <clipPath
       id="clipPath9979"
       clipPathUnits="userSpaceOnUse">
      <rect
         y="624.51703"
         x="73.395432"
         height="327.65161"
         width="589.01691"
         id="rect9981"
         style="opacity:1;fill:url(#linearGradient9830);fill-opacity:1;fill-rule:nonzero;stroke:none;stroke-width:18;stroke-linecap:square;stroke-linejoin:round;stroke-miterlimit:4;stroke-dasharray:none;stroke-opacity:1" />
    </clipPath>
  </defs>
  <sodipodi:namedview
     id="base"
     pagecolor="#ffffff"
     bordercolor="#666666"
     borderopacity="1.0"
     inkscape:pageopacity="0.0"
     inkscape:pageshadow="2"
     inkscape:zoom="0.7"
     inkscape:cx="-65.608077"
     inkscape:cy="-244.1804"
     inkscape:document-units="px"
     inkscape:current-layer="layer1"
     showgrid="false"
     inkscape:window-width="1366"
     inkscape:window-height="705"
     inkscape:window-x="0"
     inkscape:window-y="30"
     inkscape:window-maximized="1"
     fit-margin-top="0"
     fit-margin-left="0"
     fit-margin-right="0"
     fit-margin-bottom="0" />
  <metadata
     id="metadata7">
    <rdf:RDF>
      <cc:Work
         rdf:about="">
        <dc:format>image/svg+xml</dc:format>
        <dc:type
           rdf:resource="http://purl.org/dc/dcmitype/StillImage" />
        <dc:title></dc:title>
      </cc:Work>
    </rdf:RDF>
  </metadata>
  <g
     inkscape:label="Layer 1"
     inkscape:groupmode="layer"
     id="layer1"
     transform="translate(-145.37938,-930.83224)">
    <g
       id="g8232"
       transform="matrix(0.24986622,0,0,0.24986622,91.525418,851.08648)">
      <path
         style="opacity:1;fill:#ffffff;fill-opacity:1;fill-rule:nonzero;stroke:none;stroke-width:15.30000019;stroke-linecap:square;stroke-linejoin:bevel;stroke-miterlimit:4;stroke-dasharray:none;stroke-opacity:1"
         d="m 747.55029,319.15381 c -1.90358,6.14161 -3.68482,12.07929 -5.8547,18.6506 -3.54894,10.74771 -7.45423,21.99431 -11.71723,33.52575 -2.13142,5.76557 -4.34924,11.60135 -6.6598,17.47811 -2.31056,5.87681 -4.70936,11.79756 -7.19917,17.72823 -2.48978,5.9307 -5.06876,11.87776 -7.7385,17.80641 -2.66975,5.92866 -5.43571,11.8354 -8.28568,17.70478 -2.85,5.86947 -5.78609,11.70051 -8.81724,17.45465 -3.03114,5.75414 -6.15133,11.43478 -9.36437,17.01692 -3.21308,5.58221 -6.52325,11.06126 -9.91939,16.41504 -3.39593,5.35353 -6.87788,10.57975 -10.45871,15.649 -3.5808,5.06918 -7.2546,9.98363 -11.02154,14.71099 -3.76702,4.72761 -7.62852,9.27181 -11.58432,13.60103 -3.8826,4.24917 -7.86109,8.27406 -11.92826,12.08459 1.68134,-1.32774 3.38405,-2.61484 5.02613,-4.00214 2.83159,-2.39225 5.60256,-4.86722 8.31697,-7.41803 2.71425,-2.55063 5.36835,-5.17732 7.96518,-7.86358 2.59675,-2.68615 5.13575,-5.43374 7.61347,-8.23097 2.47801,-2.79757 4.89578,-5.64331 7.25389,-8.528 2.3579,-2.88448 4.65601,-5.81356 6.89429,-8.7625 2.23803,-2.9486 4.41784,-5.91513 6.53477,-8.9032 2.11718,-2.98842 4.17212,-5.99344 6.16734,-8.99701 3.99086,-6.00758 7.73886,-12.02072 11.24042,-17.9471 3.50139,-5.92619 6.75449,-11.76255 9.76302,-17.41557 3.00853,-5.653 5.77341,-11.12604 8.28568,-16.31342 2.51242,-5.1876 4.77931,-10.09503 6.79271,-14.62501 2.01332,-4.52984 3.77182,-8.68458 5.28407,-12.36599 1.51205,-3.68099 2.77488,-6.88839 3.78326,-9.52854 1.64836,-4.31569 2.15011,-5.84787 2.45444,-6.73798 1.80356,-7.01702 3.78598,-14.2944 5.41697,-20.95653 3.58688,-14.65156 6.82097,-28.58766 9.69267,-41.50658 0.7889,-3.54891 1.32875,-6.33468 2.06363,-9.72395 z m -106.64303,47.01734 c -3.79191,7.25701 -7.67279,14.43424 -11.70154,21.44898 -4.39051,7.64453 -8.92014,15.13389 -13.56978,22.42606 -4.64969,7.29228 -9.41912,14.38187 -14.30454,21.25356 -4.88541,6.87175 -9.88573,13.52506 -14.98458,19.9091 -5.09872,6.38392 -10.29675,12.50205 -15.58646,18.33012 -5.28967,5.82802 -10.6667,11.35943 -16.12583,16.56355 -5.459,5.20407 -11.0028,10.08237 -16.61044,14.59374 -2.80378,2.25569 -5.62053,4.41842 -8.45765,6.48785 -2.8378,2.06992 -5.69197,4.04334 -8.55926,5.91723 -2.86709,1.87375 -5.74788,3.65231 -8.64527,5.32316 -2.89691,1.67059 -5.80951,3.23323 -8.73123,4.69001 -2.92272,1.45729 -5.85653,2.80698 -8.80159,4.04122 -2.94517,1.23433 -5.90552,2.35871 -8.87191,3.36118 -2.96554,1.00217 -5.93493,1.88144 -8.91885,2.64204 -2.984,0.76064 -5.97684,1.39861 -8.97356,1.90727 -2.9966,0.50864 -6.00453,0.89392 -9.01262,1.14123 -3.00709,0.24719 -6.01546,0.36002 -9.02827,0.33612 -3.01322,-0.0239 -6.03127,-0.18825 -9.04388,-0.49245 -2.50426,-0.25287 -5.0026,-0.66578 -7.50402,-1.11778 8.90929,5.05733 18.12942,10.24287 27.85863,15.53956 10.36142,5.64086 21.20719,11.37488 32.58776,17.12635 2.79905,1.41458 5.57582,2.70702 8.32477,3.87708 2.74911,1.17016 5.46977,2.22453 8.16845,3.15794 2.59855,0.8988 5.17713,1.67365 7.7307,2.36063 2.02212,0.14912 4.02803,0.11153 6.03447,-0.14851 2.07379,-0.2688 4.14718,-0.74981 6.22209,-1.43827 2.07495,-0.68847 4.15386,-1.58846 6.22989,-2.68112 2.07683,-1.09311 4.14986,-2.38265 6.22205,-3.86145 2.07239,-1.4789 4.14058,-3.14692 6.19864,-4.98704 2.05786,-1.83991 4.10912,-3.8533 6.14393,-6.02666 2.03488,-2.17344 4.05517,-4.50505 6.05792,-6.9803 2.00263,-2.47517 3.98313,-5.09254 5.9485,-7.84013 1.96521,-2.74739 3.90981,-5.62705 5.83124,-8.61399 1.92171,-2.98741 3.82497,-6.08264 5.69837,-9.2784 3.74688,-6.3917 7.38899,-13.17407 10.91988,-20.21394 3.53081,-7.03966 6.9458,-14.33825 10.23204,-21.77728 3.28636,-7.43919 6.44229,-15.01437 9.45822,-22.60585 3.01585,-7.59143 5.89287,-15.20117 8.61397,-22.69964 2.72114,-7.49855 5.28959,-14.88376 7.69159,-22.04305 4.80422,-14.31911 8.94731,-27.72046 12.33477,-39.2163 1.26899,-4.30663 1.87128,-6.69009 2.9234,-10.41182 z m 78.62023,65.82429 c -0.81351,1.73128 -1.48796,3.27888 -2.36066,5.08084 -2.5414,5.24757 -5.33458,10.77182 -8.37949,16.4932 -3.04487,5.72134 -6.34007,11.63714 -9.88809,17.64225 -3.54794,6.00494 -7.34577,12.09911 -11.39674,18.19725 -2.02564,3.04931 -4.11784,6.10136 -6.26895,9.1377 -2.15139,3.03667 -4.36698,6.0593 -6.6442,9.05953 -2.27693,2.99987 -4.61559,5.97824 -7.01939,8.91884 -2.40361,2.94036 -4.87265,5.84404 -7.4024,8.69996 -2.53,2.8563 -5.1211,5.66275 -7.77757,8.41076 -2.65646,2.74789 -5.37647,5.43486 -8.16064,8.05118 -2.78393,2.61614 -5.63222,5.16157 -8.54361,7.62126 -2.9116,2.45984 -5.88703,4.83412 -8.92666,7.11319 -3.03975,2.27915 -6.14145,4.46095 -9.30966,6.53474 -3.16806,2.07367 -6.40323,4.04226 -9.70051,5.88597 -3.29697,1.84351 -6.65733,3.5629 -10.08352,5.15119 -3.42635,1.58835 -6.9201,3.04657 -10.47436,4.35389 -3.55471,1.30747 -7.16752,2.46954 -10.84957,3.47061 -3.68197,1.00104 -7.43198,1.83977 -11.24038,2.50915 -2.64725,0.46529 -5.27362,0.72114 -7.80885,1.00054 -0.0215,0.003 -0.0489,0.006 -0.0704,0.008 0.0637,-0.007 0.13967,-0.011 -0.0625,0.0156 l -0.0156,0 c -0.22833,0.0288 -0.28456,0.031 -0.16417,0.0156 l -0.0547,0.008 c -0.9648,0.10415 -2.08452,0.32286 -3.43152,0.42992 -0.83544,0.0666 -1.45942,0.0398 -1.85255,0.0625 -0.004,0 -0.0116,-2.8e-4 -0.0156,0 -0.59263,0.046 -1.32142,0.15493 -2.22775,0.20323 -2.61276,0.13933 -5.25229,0.18004 -7.91047,0.10944 -2.6581,-0.0706 -5.34154,-0.25177 -8.04339,-0.53936 -2.70208,-0.28761 -5.42438,-0.68479 -8.16841,-1.19595 -2.7439,-0.51113 -5.50746,-1.13465 -8.29351,-1.876 -2.78522,-0.74114 -5.59192,-1.60179 -8.41855,-2.57951 -2.82655,-0.97763 -5.66971,-2.07086 -8.53585,-3.29082 -2.86633,-1.22002 -5.7546,-2.56464 -8.66087,-4.03341 -11.44088,-5.78196 -22.34112,-11.54885 -32.74408,-17.21233 -10.40285,-5.66341 -20.30491,-11.21958 -29.75813,-16.59482 -7.96482,-4.52893 -15.44706,-8.83338 -22.79343,-13.04604 a 2.8364469,2.8364469 0 0 1 -0.0547,-0.0313 c -1.35369,-0.7762 -2.86382,-1.64413 -4.19757,-2.40754 -1.65453,-0.94718 -3.4721,-1.94224 -5.44043,-2.95471 -1.96853,-1.01261 -4.08923,-2.04453 -6.35496,-3.07195 -2.26585,-1.02748 -4.67418,-2.04777 -7.22259,-3.04069 -2.54788,-0.99269 -5.23576,-1.9523 -8.05119,-2.86091 -2.81566,-0.90869 -5.75928,-1.76598 -8.82504,-2.54042 -3.06608,-0.77453 -6.25707,-1.47219 -9.55979,-2.0636 -3.30217,-0.5913 -6.71564,-1.07932 -10.23988,-1.43827 -3.52373,-0.35891 -7.15771,-0.58722 -10.88863,-0.66442 -3.7306,-0.0773 -7.5584,-0.003 -11.4827,0.25013 -3.92442,0.25378 -7.94241,0.68666 -12.04549,1.32102 -4.10332,0.63439 -8.29104,1.47509 -12.56144,2.54042 -4.27001,1.06522 -8.62226,2.35366 -13.04602,3.90053 -2.21207,0.77349 -4.44354,1.61364 -6.6911,2.51697 -2.24813,0.90357 -4.51098,1.8759 -6.79268,2.91562 -2.2817,1.03971 -4.57941,2.14698 -6.89433,3.32991 -2.31464,1.18279 -4.65053,2.44329 -6.99594,3.77546 -1.50196,0.85311 -3.01962,1.78811 -4.53367,2.70457 1.35313,-0.0527 2.70977,-0.0312 4.0647,0.0625 1.36269,0.0942 2.72686,0.25747 4.08811,0.49244 1.36104,0.23494 2.71781,0.53808 4.0803,0.90674 2.72366,0.73698 5.44763,1.73635 8.17625,2.96252 2.72854,1.22612 5.46937,2.6816 8.22317,4.34608 1.89273,1.14406 3.72119,2.45446 5.4951,3.68947 4.10715,2.41663 8.2639,4.79274 12.41292,7.29297 8.59236,5.1778 17.14281,10.44413 25.64652,15.75061 17.0077,10.6131 33.81982,21.37889 50.33946,31.86862 8.2599,5.24493 16.44116,10.42291 24.54437,15.47701 8.1033,5.05419 16.12079,9.98531 24.04411,14.74229 7.9232,4.75691 15.75439,9.34156 23.47352,13.69481 7.71897,4.35325 15.32728,8.4761 22.81689,12.31911 3.74492,1.92155 7.46411,3.77582 11.14656,5.54985 3.68266,1.77407 7.33421,3.46738 10.95118,5.08084 3.61674,1.61331 7.1997,3.14072 10.74796,4.58057 3.54813,1.43977 7.05389,2.7961 10.52907,4.04905 3.47534,1.25299 6.9189,2.40933 10.318,3.46277 3.39886,1.05341 6.7563,2.00383 10.07571,2.84529 3.31946,0.84145 6.59805,1.57176 9.83339,2.18865 3.23589,0.61705 6.42719,1.12016 9.57544,1.5008 3.14804,0.38072 6.2507,0.64086 9.30966,0.77385 3.0584,0.13307 6.07789,0.1338 9.04392,0.008 2.96619,-0.12599 5.88271,-0.37784 8.75469,-0.77386 2.87237,-0.39609 5.69564,-0.9327 8.47329,-1.61026 2.77793,-0.67764 5.50739,-1.49844 8.19186,-2.47004 2.68412,-0.97152 5.32561,-2.09724 7.91832,-3.37681 2.59251,-1.27948 5.13583,-2.71261 7.63689,-4.31483 1.20376,-0.77113 2.3984,-1.58528 3.58003,-2.43878 1.18163,-0.85354 2.35594,-1.74521 3.51752,-2.67331 1.95357,-2.70525 3.8846,-5.47257 5.79995,-8.31697 1.99527,-2.96299 3.9724,-6.00281 5.92505,-9.10643 3.90573,-6.20781 7.72385,-12.68423 11.45929,-19.40099 3.7354,-6.71683 7.38851,-13.67455 10.95114,-20.82366 3.56263,-7.14903 7.03873,-14.49744 10.42746,-22.00396 3.38865,-7.50625 6.6903,-15.1701 9.90374,-22.9576 3.21344,-7.78751 6.33479,-15.69919 9.37222,-23.69236 3.03746,-7.99328 5.98768,-16.06923 8.84849,-24.19264 2.86077,-8.1234 5.63318,-16.29551 8.31693,-24.47403 2.68372,-8.17844 5.27919,-16.3627 7.78541,-24.52093 2.5063,-8.15844 4.92555,-16.28647 7.25388,-24.34897 0.79158,-2.74111 1.51205,-5.42095 2.2825,-8.14498 z m -420.81895,48.46343 c -2.73978,-0.0737 -5.42946,0.017 -8.07464,0.2814 -2.64509,0.26446 -5.24688,0.70058 -7.8167,1.32102 -2.56965,0.6204 -5.10537,1.42478 -7.62124,2.42317 -2.51538,0.99819 -5.00672,2.19318 -7.4884,3.59568 -2.48149,1.40237 -4.94793,3.01233 -7.41021,4.84634 -2.4624,1.83412 -4.92395,3.88988 -7.37895,6.183 -2.45515,2.29332 -4.90698,4.82074 -7.3633,7.59781 -2.45643,2.77714 -4.92063,5.80635 -7.38675,9.09081 -2.46624,3.28451 -4.93428,6.82561 -7.41805,10.6385 -2.48369,3.81273 -4.9779,7.89395 -7.48837,12.25656 -2.51038,4.36238 -5.03613,9.00525 -7.58222,13.93714 -0.05,0.0969 -0.0985,0.20775 -0.14851,0.30485 0.97236,-1.26234 1.94372,-2.73292 2.91564,-3.8927 1.29221,-1.54205 2.58262,-2.98871 3.87707,-4.35389 1.29401,-1.36473 2.59391,-2.64637 3.89272,-3.838 1.29838,-1.19125 2.59439,-2.30025 3.90053,-3.32209 1.3061,-1.02184 2.61656,-1.95172 3.93178,-2.80619 l 0.008,-0.008 c 0.15824,-0.10259 0.10734,-0.0619 0.0625,-0.0313 l 0.008,-0.008 c 2.38795,-1.78416 4.77323,-3.50607 7.14446,-5.13556 2.46652,-1.69498 4.91991,-3.29947 7.3633,-4.83071 2.44327,-1.53116 4.87585,-2.98878 7.29298,-4.36171 2.4173,-1.37303 4.81746,-2.66384 7.20698,-3.88489 2.38924,-1.22092 4.76871,-2.37171 7.12881,-3.44715 2.36003,-1.0754 4.69976,-2.07398 7.0272,-3.00943 2.32805,-0.93568 4.63985,-1.80879 6.93339,-2.61077 2.29371,-0.80205 4.57429,-1.53737 6.83178,-2.21212 2.25749,-0.67475 4.49525,-1.28329 6.71451,-1.83692 4.43822,-1.1072 8.79711,-1.98151 13.06952,-2.64204 4.27252,-0.66054 8.45776,-1.11137 12.54575,-1.37574 4.08815,-0.26395 8.07908,-0.33845 11.96736,-0.25795 3.88796,0.0805 7.67075,0.32176 11.34199,0.69569 3.67085,0.37388 7.23107,0.87722 10.66979,1.49299 2.39789,0.42938 4.66262,0.96737 6.9412,1.49298 -3.12283,-1.62355 -6.43981,-3.46727 -9.44254,-4.94014 -3.55786,-1.74513 -7.02976,-3.37919 -10.42746,-4.89324 -3.39797,-1.51417 -6.7268,-2.90346 -9.97409,-4.1663 -3.24698,-1.26271 -6.41464,-2.40035 -9.5207,-3.39244 -3.10598,-0.99202 -6.14929,-1.83796 -9.12208,-2.54042 -2.97255,-0.7024 -5.88043,-1.26106 -8.73123,-1.65713 -2.85117,-0.39612 -5.64038,-0.62991 -8.37949,-0.70351 z m 16.26651,82.69269 c 0.78382,0.76352 1.53866,1.45421 2.32937,2.23557 6.07781,6.00596 12.35845,12.53073 18.90075,19.41664 6.54234,6.88595 13.34962,14.1293 20.45627,21.58969 7.10664,7.46036 14.51965,15.1363 22.28536,22.8638 3.88276,3.86363 7.84768,7.74282 11.91262,11.61557 4.06501,3.87284 8.22512,7.74139 12.48324,11.58432 4.25807,3.84294 8.61413,7.66074 13.07731,11.4358 4.46315,3.7751 9.03168,7.50194 13.71046,11.17006 4.67894,3.66828 9.46867,7.27942 14.37489,10.80266 4.90615,3.52321 9.93356,6.96249 15.07835,10.30239 5.14475,3.33983 10.41065,6.5744 15.80534,9.69267 5.39477,3.11827 10.9152,6.12288 16.57139,8.98137 2.7818,1.40583 5.54064,2.65162 8.27002,3.7442 2.72898,1.09242 5.42891,2.02356 8.1059,2.81399 2.67751,0.79058 5.33185,1.43901 7.95742,1.93855 2.62648,0.49971 5.22315,0.85102 7.80101,1.0709 2.57742,0.21983 5.13471,0.30764 7.66819,0.25793 2.53267,-0.0497 5.04401,-0.23688 7.53527,-0.54717 2.49121,-0.31024 4.95865,-0.74296 7.4102,-1.30538 2.45163,-0.56238 4.88566,-1.24859 7.30079,-2.05578 2.41517,-0.80723 4.81237,-1.73833 7.19137,-2.78273 2.37907,-1.04448 4.73793,-2.2039 7.08191,-3.47842 2.34353,-1.27436 4.6717,-2.66138 6.98029,-4.1585 2.30888,-1.49728 4.59938,-3.10422 6.87088,-4.81506 2.27209,-1.71132 4.52646,-3.53105 6.76142,-5.44824 2.23487,-1.91718 4.45506,-3.93566 6.652,-6.05011 2.19693,-2.11445 4.36893,-4.32592 6.52693,-6.62855 2.15767,-2.30235 4.29906,-4.69375 6.41747,-7.17572 0.71375,-0.83617 1.41024,-1.73545 2.11834,-2.59515 -0.54577,0.28463 -1.08378,0.59628 -1.63368,0.86767 -2.3886,1.17883 -4.82326,2.20734 -7.28514,3.14232 -0.40497,0.1538 -0.80467,0.32953 -1.2116,0.47681 -2.88031,1.04252 -5.80643,1.92495 -8.77814,2.64986 -1.48604,0.36247 -2.97912,0.68337 -4.48676,0.96928 -1.50765,0.28583 -3.02882,0.53965 -4.55712,0.7504 -1.52854,0.21071 -3.07112,0.3782 -4.61967,0.51588 -1.54855,0.13771 -3.10614,0.23824 -4.67438,0.30484 -3.13664,0.13319 -6.30846,0.13191 -9.5207,-0.008 -3.21172,-0.13968 -6.46246,-0.41571 -9.74741,-0.81292 -3.2848,-0.39725 -6.60458,-0.91597 -9.95845,-1.55555 -3.35444,-0.63966 -6.74033,-1.39955 -10.16172,-2.26681 -3.42139,-0.86731 -6.87748,-1.84259 -10.36491,-2.92345 -3.48714,-1.08074 -7.00959,-2.26861 -10.56033,-3.54878 -3.55086,-1.2802 -7.12817,-2.6537 -10.74011,-4.1194 -3.61193,-1.46567 -7.25584,-3.02082 -10.92772,-4.65874 -3.67169,-1.63783 -7.37087,-3.36263 -11.0997,-5.159 -3.72904,-1.79644 -7.48793,-3.66312 -11.27167,-5.60455 -3.78183,-1.94052 -7.59327,-3.95428 -11.428,-6.02667 0,0 -0.008,0 -0.008,0 -3.83678,-2.07359 -7.69772,-4.21001 -11.58432,-6.40187 -7.77312,-4.3837 -15.63985,-8.99473 -23.59859,-13.77301 -7.95858,-4.77819 -16.00693,-9.7226 -24.13007,-14.78915 -8.12327,-5.06663 -16.31757,-10.25177 -24.58348,-15.50049 -16.532,-10.49758 -33.32995,-21.25532 -50.30035,-31.84516 -2.78774,-1.73961 -5.60628,-3.43026 -8.40294,-5.15901 z"
         id="path4957"
         inkscape:connector-curvature="0" />
    </g>
  </g>
</svg>
